<?xml version="1.0" encoding="UTF-8"?>
<!DOCTYPE svg PUBLIC "-//W3C//DTD SVG 1.1//EN" "http://www.w3.org/Graphics/SVG/1.1/DTD/svg11.dtd">
<!-- Creator: CorelDRAW X7 -->
<svg xmlns="http://www.w3.org/2000/svg" xml:space="preserve" width="7mm" height="7mm" version="1.1" style="shape-rendering:geometricPrecision; text-rendering:geometricPrecision; image-rendering:optimizeQuality; fill-rule:evenodd; clip-rule:evenodd"
viewBox="0 0 18983 18983"
 xmlns:xlink="http://www.w3.org/1999/xlink">
 <defs>
  <style type="text/css">
   <![CDATA[
    .fil0 {fill:white}
   ]]>
  </style>
 </defs>
 <g id="Capa_x0020_1">
  <metadata id="CorelCorpID_0Corel-Layer"/>
  <path class="fil0" d="M18371 2190l-6689 0 0 2179 2213 0 0 1483 -2213 0 0 1449 2190 0 0 1460 -2190 0 0 1461 2190 0 0 1460 -2190 0 0 1460 2190 0 0 1460 -2190 0 0 2190 6689 0c336,0 612,-285 612,-635l0 -13332c0,-349 -276,-635 -612,-635zm-848 12412l-2921 0 0 -1460 2921 0 0 1460zm0 -2920l-2921 0 0 -1460 2921 0 0 1460zm0 -2921l-2921 0 0 -1460 2921 0 0 1460zm0 -2920l-2921 0 0 -1460 2921 0 0 1460zm-17523 -3732l0 14765 10951 2109 0 -18983 -10951 2109zm6927 11091l-1274 -2408c-48,-90 -98,-255 -150,-495l-19 0c-24,113 -81,285 -171,516l-1279 2387 -1985 0 2357 -3697 -2156 -3698 2027 0 1057 2217c83,176 156,384 222,624l21 0c41,-145 119,-359 232,-645l1175 -2197 1856 0 -2217 3667 2279 3729 -1975 0 0 0z"/>
 </g>
</svg>
