<?xml version="1.0" encoding="UTF-8"?>
<!DOCTYPE svg PUBLIC "-//W3C//DTD SVG 1.1//EN" "http://www.w3.org/Graphics/SVG/1.1/DTD/svg11.dtd">
<!-- Creator: CorelDRAW X7 -->
<svg xmlns="http://www.w3.org/2000/svg" xml:space="preserve" width="6.057mm" height="5.6784mm" version="1.1" style="shape-rendering:geometricPrecision; text-rendering:geometricPrecision; image-rendering:optimizeQuality; fill-rule:evenodd; clip-rule:evenodd"
viewBox="0 0 2159 2024"
 xmlns:xlink="http://www.w3.org/1999/xlink">
 <defs>
  <style type="text/css">
   <![CDATA[
    .fil1 {fill:#136EF1}
    .fil0 {fill:#1689FC}
    .fil2 {fill:#18A7FC}
    .fil4 {fill:#E61E14}
    .fil3 {fill:#FD3018}
    .fil5 {fill:#FD4E26}
   ]]>
  </style>
 </defs>
 <g id="Capa_x0020_1">
  <metadata id="CorelCorpID_0Corel-Layer"/>
  <path class="fil0" d="M1585 506c-314,0 -569,255 -569,569 0,35 28,63 63,63l1016 0c36,0 64,-28 64,-63 0,-314 -260,-569 -574,-569z"/>
  <path class="fil1" d="M2159 1075c0,35 -28,63 -64,63l-510 0 0 -632c314,0 574,255 574,569z"/>
  <path class="fil2" d="M1585 0c-174,0 -316,142 -316,316 0,175 142,316 316,316 175,0 316,-141 316,-316 0,-174 -141,-316 -316,-316z"/>
  <path class="fil0" d="M1901 316c0,175 -141,316 -316,316l0 -632c175,0 316,142 316,316z"/>
  <path class="fil0" d="M573 506c-313,0 -573,255 -573,569 0,35 28,63 63,63l1016 0c36,0 63,-28 63,-63 0,-314 -255,-569 -569,-569z"/>
  <path class="fil1" d="M1142 1075c0,35 -27,63 -63,63l-506 0 0 -632c314,0 569,255 569,569z"/>
  <path class="fil2" d="M573 0c-174,0 -316,142 -316,316 0,175 142,316 316,316 175,0 317,-141 317,-316 0,-174 -142,-316 -317,-316z"/>
  <path class="fil0" d="M890 316c0,175 -142,316 -317,316l0 -632c175,0 317,142 317,316z"/>
  <path class="fil3" d="M1079 1391c-313,0 -569,256 -569,569 0,36 28,64 63,64l1012 0c36,0 63,-28 63,-64 0,-313 -255,-569 -569,-569z"/>
  <path class="fil4" d="M1648 1960c0,36 -27,64 -63,64l-506 0 0 -633c314,0 569,256 569,569z"/>
  <path class="fil5" d="M1079 885c-174,0 -316,142 -316,317 0,174 142,316 316,316 175,0 316,-142 316,-316 0,-175 -141,-317 -316,-317z"/>
  <path class="fil3" d="M1395 1202c0,174 -141,316 -316,316l0 -633c175,0 316,142 316,317z"/>
 </g>
</svg>
