<?xml version="1.0" encoding="UTF-8"?>
<!DOCTYPE svg PUBLIC "-//W3C//DTD SVG 1.1//EN" "http://www.w3.org/Graphics/SVG/1.1/DTD/svg11.dtd">
<!-- Creator: CorelDRAW X7 -->
<svg xmlns="http://www.w3.org/2000/svg" xml:space="preserve" width="5.6784mm" height="5.6784mm" version="1.1" style="shape-rendering:geometricPrecision; text-rendering:geometricPrecision; image-rendering:optimizeQuality; fill-rule:evenodd; clip-rule:evenodd"
viewBox="0 0 1913 1913"
 xmlns:xlink="http://www.w3.org/1999/xlink">
 <defs>
  <style type="text/css">
   <![CDATA[
    .fil1 {fill:#666666}
    .fil3 {fill:gray}
    .fil2 {fill:#B3B3B3}
    .fil0 {fill:#CCCCCC}
   ]]>
  </style>
 </defs>
 <g id="Capa_x0020_1">
  <metadata id="CorelCorpID_0Corel-Layer"/>
  <path class="fil0" d="M1881 794l-113 -55c-19,-71 -47,-139 -84,-203l39 -116c7,-21 1,-43 -13,-58l-160 -159c-14,-14 -37,-20 -57,-13l-116 39c-64,-37 -133,-65 -203,-84l-55 -114c-10,-19 -29,-31 -51,-31l-224 0c-21,0 -40,12 -50,31l-55 114c-71,19 -139,47 -203,84l-116 -39c-21,-7 -43,-1 -58,13l-159 159c-14,15 -20,37 -13,58l39 116c-37,64 -65,132 -84,203l-114 55c-19,10 -31,29 -31,50l0 224c0,22 12,41 31,51l114 55c19,70 47,139 84,203l-39 116c-7,20 -1,43 13,57l159 160c15,14 37,20 58,13l116 -39c64,37 132,65 203,84l55 113c10,19 29,32 50,32l224 0c22,0 41,-13 51,-32l55 -113c70,-19 139,-47 203,-84l116 39c20,7 43,1 57,-13l160 -160c14,-14 20,-37 13,-57l-39 -116c37,-64 65,-133 84,-203l113 -55c19,-10 32,-29 32,-51l0 -224c0,-21 -13,-40 -32,-50zm-925 723c-309,0 -560,-251 -560,-561 0,-309 251,-560 560,-560 310,0 561,251 561,560 0,310 -251,561 -561,561z"/>
  <path class="fil1" d="M1913 844l0 224c0,22 -13,41 -32,51l-113 55c-19,70 -47,139 -84,203l39 116c7,20 1,43 -13,57l-160 160c-14,14 -37,20 -57,13l-116 -39c-64,37 -133,65 -203,84l-55 113c-10,19 -29,32 -51,32l-112 0 0 -396c310,0 561,-251 561,-561 0,-309 -251,-560 -561,-560l0 -396 112 0c22,0 41,12 51,31l55 114c70,19 139,47 203,84l116 -39c20,-7 43,-1 57,13l160 159c14,15 20,37 13,58l-39 116c37,64 65,132 84,203l113 55c19,10 32,29 32,50z"/>
  <path class="fil2" d="M956 340c-339,0 -616,277 -616,616 0,340 277,617 616,617 340,0 617,-277 617,-617 0,-339 -277,-616 -617,-616zm0 1121c-278,0 -504,-227 -504,-505 0,-278 226,-504 504,-504 278,0 505,226 505,504 0,278 -227,505 -505,505z"/>
  <path class="fil3" d="M1573 956c0,340 -277,617 -617,617l0 -112c278,0 505,-227 505,-505 0,-278 -227,-504 -505,-504l0 -112c340,0 617,277 617,616z"/>
 </g>
</svg>
