<?xml version="1.0" encoding="UTF-8"?>
<!DOCTYPE svg PUBLIC "-//W3C//DTD SVG 1.1//EN" "http://www.w3.org/Graphics/SVG/1.1/DTD/svg11.dtd">
<!-- Creator: CorelDRAW X7 -->
<svg xmlns="http://www.w3.org/2000/svg" xml:space="preserve" width="5.4545mm" height="5mm" version="1.1" style="shape-rendering:geometricPrecision; text-rendering:geometricPrecision; image-rendering:optimizeQuality; fill-rule:evenodd; clip-rule:evenodd"
viewBox="0 0 24 22"
 xmlns:xlink="http://www.w3.org/1999/xlink">
 <defs>
  <style type="text/css">
   <![CDATA[
    .fil1 {fill:#00B503}
    .fil0 {fill:#32D736}
    .fil3 {fill:yellow}
    .fil2 {fill:white}
   ]]>
  </style>
 </defs>
 <g id="Capa_x0020_1">
  <metadata id="CorelCorpID_0Corel-Layer"/>
  <rect class="fil0" x="1" y="16" width="3.92917" height="5.50084"/>
  <rect class="fil0" x="7" y="12" width="3.92917" height="9.03709"/>
  <rect class="fil0" x="13" y="9" width="3.92917" height="12.1804"/>
  <rect class="fil1" x="19" y="6" width="3.92917" height="15.3238"/>
  <path class="fil2" d="M23 22l-23 0c0,0 0,-1 0,-1 0,0 0,0 0,0l23 0c0,0 1,0 1,0 0,0 -1,1 -1,1z"/>
  <path class="fil3" d="M3 10c0,0 0,0 0,0 0,0 0,-1 0,-1l15 -9c0,0 1,0 1,1 0,0 0,0 0,0l-16 9c0,0 0,0 0,0z"/>
  <path class="fil3" d="M18 1c0,0 0,0 0,0l-3 0c0,0 0,0 0,-1 0,0 0,0 0,0l4 0c0,0 0,1 0,1 0,0 0,0 -1,0z"/>
  <path class="fil3" d="M17 4c0,0 0,0 0,0 0,0 0,0 0,0l1 -3c0,-1 0,-1 1,-1 0,0 0,1 0,1l-2 3c0,0 0,0 0,0z"/>
 </g>
</svg>
