<?xml version="1.0" encoding="UTF-8"?>
<!DOCTYPE svg PUBLIC "-//W3C//DTD SVG 1.1//EN" "http://www.w3.org/Graphics/SVG/1.1/DTD/svg11.dtd">
<!-- Creator: CorelDRAW X7 -->
<svg xmlns="http://www.w3.org/2000/svg" xml:space="preserve" width="25.5246mm" height="31.1166mm" version="1.1" style="shape-rendering:geometricPrecision; text-rendering:geometricPrecision; image-rendering:optimizeQuality; fill-rule:evenodd; clip-rule:evenodd"
viewBox="0 0 919 1120"
 xmlns:xlink="http://www.w3.org/1999/xlink">
 <defs>
  <style type="text/css">
   <![CDATA[
    .fil8 {fill:#00AD45}
    .fil9 {fill:#299BCC}
    .fil5 {fill:#32D736}
    .fil7 {fill:#4DBBEB}
    .fil4 {fill:#8B8892}
    .fil2 {fill:#AEADB3}
    .fil1 {fill:#D9D9D9}
    .fil0 {fill:#E5E5E5}
    .fil3 {fill:#FE9923}
    .fil6 {fill:red}
   ]]>
  </style>
 </defs>
 <g id="Capa_x0020_1">
  <metadata id="CorelCorpID_0Corel-Layer"/>
  <g id="_828915072">
   <path class="fil0" d="M919 262l0 760c0,54 -44,98 -99,98l-721 0c-55,0 -99,-44 -99,-98l0 -923c0,-55 44,-99 99,-99l558 0 65 197 197 65 0 0z"/>
   <path class="fil1" d="M919 262l0 760c0,54 -44,98 -99,98l-361 0 0 -1120 198 0 65 197 197 65 0 0z"/>
   <path class="fil2" d="M755 956c0,18 -15,33 -33,33l-525 0c-18,0 -33,-15 -33,-33 0,-18 15,-33 33,-33l525 0c18,0 33,15 33,33z"/>
   <path class="fil2" d="M755 822c0,19 -15,33 -33,33l-525 0c-18,0 -33,-14 -33,-33 0,-18 15,-32 33,-32l525 0c18,0 33,14 33,32z"/>
   <path class="fil3" d="M657 230c0,18 14,32 32,32l230 0 -262 -262 0 230z"/>
   <path class="fil4" d="M755 956c0,18 -15,33 -33,33l-263 0 0 -66 263 0c18,0 33,15 33,33z"/>
   <path class="fil4" d="M722 855l-263 0 0 -65 263 0c18,0 33,14 33,32 0,19 -15,33 -33,33z"/>
   <path class="fil5" d="M169 472l-50 -51c-10,-10 -10,-26 0,-35 10,-10 26,-10 36,0l32 32 83 -83c10,-10 26,-10 36,0 10,10 10,26 0,36l-101 101c-10,9 -26,9 -36,0z"/>
   <path class="fil5" d="M169 648l-50 -51c-10,-9 -10,-25 0,-35 10,-10 26,-10 36,0l32 32 83 -83c10,-9 26,-9 36,0 10,10 10,26 0,36l-101 101c-12,12 -24,12 -36,0z"/>
   <path class="fil6" d="M223 227l32 -32c10,-10 10,-26 0,-36 -10,-10 -25,-10 -35,0l-33 32 -32 -32c-10,-10 -26,-10 -36,0 -10,10 -10,26 0,36l33 32 -33 33c-10,9 -10,25 0,35 10,10 26,10 36,0l32 -32 33 32c10,10 25,10 35,0 10,-10 10,-26 0,-35l-32 -33z"/>
   <path class="fil7" d="M543 252l-153 0c-14,0 -25,-11 -25,-25 0,-14 11,-25 25,-25l153 0c14,0 25,11 25,25 0,14 -11,25 -25,25zm270 353l-423 0c-14,0 -25,-11 -25,-25 0,-14 11,-26 25,-26l423 0c14,0 25,12 25,26 0,14 -11,25 -25,25zm0 -176l-423 0c-14,0 -25,-12 -25,-26 0,-14 11,-25 25,-25l423 0c14,0 25,11 25,25 0,14 -11,26 -25,26z"/>
   <path class="fil5" d="M535 931c0,31 -20,59 -50,71l0 0 0 29c0,14 -12,25 -26,25 -14,0 -25,-11 -25,-25l0 -29c-16,-6 -32,-17 -45,-33 -9,-11 -8,-26 3,-35 10,-9 26,-8 35,3 10,12 22,19 32,19 3,0 6,-1 9,-2 10,-3 17,-13 17,-23 0,-14 -12,-25 -26,-25 -41,0 -75,-34 -75,-75 0,-30 18,-58 46,-70 1,0 3,0 4,-1l0 -30c0,-14 11,-25 25,-25 14,0 26,11 26,25l0 30c13,5 25,11 37,22 10,10 10,26 0,36 -9,10 -25,10 -35,1 -10,-9 -19,-14 -28,-13 -3,0 -6,0 -9,2 -10,4 -16,13 -16,23 0,14 11,25 25,25 42,0 76,33 76,75z"/>
   <path class="fil8" d="M487 819c-10,-9 -19,-14 -28,-13l0 -101c14,0 26,11 26,25l0 30c13,5 25,11 37,22 10,10 10,26 0,36 -9,10 -25,10 -35,1z"/>
   <path class="fil8" d="M535 931c0,31 -20,59 -50,71l0 0 0 29c0,14 -12,25 -26,25l0 -100c3,0 6,-1 9,-2 10,-3 17,-13 17,-23 0,-14 -12,-25 -26,-25l0 -50c42,0 76,33 76,75z"/>
   <path class="fil9" d="M459 605l0 -51 354 0c14,0 25,12 25,26 0,14 -11,25 -25,25l-354 0zm0 -176l0 -51 354 0c14,0 25,11 25,25 0,14 -11,26 -25,26l-354 0zm0 -177l0 -50 84 0c14,0 25,11 25,25 0,14 -11,25 -25,25l-84 0z"/>
  </g>
 </g>
</svg>
