<?xml version="1.0" encoding="UTF-8"?>
<!DOCTYPE svg PUBLIC "-//W3C//DTD SVG 1.1//EN" "http://www.w3.org/Graphics/SVG/1.1/DTD/svg11.dtd">
<!-- Creator: CorelDRAW X7 -->
<svg xmlns="http://www.w3.org/2000/svg" xml:space="preserve" width="14.6901mm" height="14.6052mm" version="1.1" style="shape-rendering:geometricPrecision; text-rendering:geometricPrecision; image-rendering:optimizeQuality; fill-rule:evenodd; clip-rule:evenodd"
viewBox="0 0 339 337"
 xmlns:xlink="http://www.w3.org/1999/xlink">
 <defs>
  <style type="text/css">
   <![CDATA[
    .fil1 {fill:#00B503}
    .fil3 {fill:#00C903}
    .fil5 {fill:#0A4EAF}
    .fil4 {fill:#136EF1}
    .fil2 {fill:#2EE831}
    .fil0 {fill:#32D736}
    .fil10 {fill:#B3B3B3}
    .fil7 {fill:#E61E14}
    .fil9 {fill:#E6E6E6}
    .fil6 {fill:#FD3018}
    .fil8 {fill:#FD4E26}
   ]]>
  </style>
 </defs>
 <g id="Capa_x0020_1">
  <metadata id="CorelCorpID_0Corel-Layer"/>
  <g id="_844074112">
   <g>
    <path class="fil0" d="M90 98c-50,0 -90,41 -90,90 0,6 4,10 10,10l160 0c5,0 10,-4 10,-10 0,-49 -41,-90 -90,-90z"/>
    <path class="fil1" d="M180 188c0,6 -5,10 -10,10l-80 0 0 -100c49,0 90,41 90,90z"/>
    <path class="fil2" d="M90 19c-28,0 -50,22 -50,50 0,27 22,49 50,49 27,0 49,-22 49,-49 0,-28 -22,-50 -49,-50z"/>
    <path class="fil3" d="M139 69c0,27 -22,49 -49,49l0 -99c27,0 49,22 49,50z"/>
    <g>
     <path class="fil4" d="M102 9l0 -3c0,-3 -3,-6 -6,-6l-13 0c-3,0 -6,3 -6,6l0 3c-23,6 -40,25 -40,50l0 6 105 0 0 -6c0,-25 -17,-44 -40,-50z"/>
     <g>
      <path class="fil5" d="M102 25c-2,0 -3,-1 -3,-3l0 -10c0,-1 1,-3 3,-3 2,0 3,2 3,3l0 10c0,2 -1,3 -3,3z"/>
      <path class="fil5" d="M77 25c-2,0 -3,-1 -3,-3l0 -10c0,-1 1,-3 3,-3 2,0 3,2 3,3l0 10c0,2 -1,3 -3,3z"/>
      <path class="fil5" d="M148 68l-117 0c-2,0 -4,-1 -4,-3 0,-2 2,-3 4,-3l117 0c2,0 4,1 4,3 0,2 -2,3 -4,3z"/>
     </g>
     <g>
      <path class="fil5" d="M44 33l24 4 -5 -22c-8,4 -14,10 -19,18z"/>
      <path class="fil5" d="M135 33l-24 4 5 -22c8,4 14,10 19,18z"/>
     </g>
    </g>
   </g>
   <g>
    <path class="fil0" d="M249 98c-49,0 -90,41 -90,90 0,6 5,10 10,10l160 0c6,0 10,-4 10,-10 0,-49 -41,-90 -90,-90z"/>
    <path class="fil1" d="M339 188c0,6 -4,10 -10,10l-80 0 0 -100c49,0 90,41 90,90z"/>
    <path class="fil2" d="M249 19c-27,0 -50,22 -50,50 0,27 23,49 50,49 27,0 50,-22 50,-49 0,-28 -23,-50 -50,-50z"/>
    <path class="fil3" d="M299 69c0,27 -23,49 -50,49l0 -99c27,0 50,22 50,50z"/>
    <g>
     <path class="fil4" d="M261 9l0 -3c0,-3 -2,-6 -6,-6l-12 0c-4,0 -6,3 -6,6l0 3c-24,6 -41,25 -41,50l0 6 106 0 0 -6c0,-25 -17,-44 -41,-50z"/>
     <g>
      <path class="fil5" d="M261 25c-2,0 -3,-1 -3,-3l0 -10c0,-1 1,-3 3,-3 2,0 3,2 3,3l0 10c0,2 -1,3 -3,3z"/>
      <path class="fil5" d="M237 25c-2,0 -4,-1 -4,-3l0 -10c0,-1 2,-3 4,-3 1,0 3,2 3,3l0 10c0,2 -2,3 -3,3z"/>
      <path class="fil5" d="M308 68l-118 0c-2,0 -3,-1 -3,-3 0,-2 1,-3 3,-3l118 0c2,0 3,1 3,3 0,2 -1,3 -3,3z"/>
     </g>
     <g>
      <path class="fil5" d="M204 33l23 4 -4 -22c-8,4 -15,10 -19,18z"/>
      <path class="fil5" d="M294 33l-23 4 4 -22c8,4 15,10 19,18z"/>
     </g>
    </g>
   </g>
   <g>
    <path class="fil6" d="M169 238c-49,0 -89,40 -89,89 0,6 4,10 10,10l159 0c6,0 10,-4 10,-10 0,-49 -41,-89 -90,-89z"/>
    <path class="fil7" d="M259 327c0,6 -4,10 -10,10l-80 0 0 -99c49,0 90,40 90,89z"/>
    <path class="fil8" d="M169 158c-27,0 -50,22 -50,50 0,27 23,50 50,50 28,0 50,-23 50,-50 0,-28 -22,-50 -50,-50z"/>
    <path class="fil6" d="M219 208c0,27 -22,50 -50,50l0 -100c28,0 50,22 50,50z"/>
    <g>
     <path class="fil9" d="M181 149l0 -4c0,-3 -2,-6 -6,-6l-12 0c-4,0 -6,3 -6,6l0 4c-24,5 -41,24 -41,49l0 6 106 0 0 -6c0,-25 -17,-44 -41,-49z"/>
     <g>
      <path class="fil10" d="M181 164c-1,0 -3,-1 -3,-3l0 -9c0,-2 2,-3 3,-3 2,0 4,1 4,3l0 9c0,2 -2,3 -4,3z"/>
      <path class="fil10" d="M157 164c-2,0 -3,-1 -3,-3l0 -9c0,-2 1,-3 3,-3 2,0 3,1 3,3l0 9c0,2 -1,3 -3,3z"/>
      <path class="fil10" d="M228 207l-118 0c-2,0 -3,-1 -3,-3 0,-2 1,-3 3,-3l118 0c2,0 3,1 3,3 0,2 -1,3 -3,3z"/>
     </g>
     <g>
      <path class="fil10" d="M124 172l23 4 -4 -22c-8,4 -15,10 -19,18z"/>
      <path class="fil10" d="M214 172l-23 4 4 -22c8,4 15,10 19,18z"/>
     </g>
    </g>
   </g>
  </g>
 </g>
</svg>
