<?xml version="1.0" encoding="UTF-8"?>
<!DOCTYPE svg PUBLIC "-//W3C//DTD SVG 1.1//EN" "http://www.w3.org/Graphics/SVG/1.1/DTD/svg11.dtd">
<!-- Creator: CorelDRAW X7 -->
<svg xmlns="http://www.w3.org/2000/svg" xml:space="preserve" width="6.1534mm" height="5.6727mm" version="1.1" style="shape-rendering:geometricPrecision; text-rendering:geometricPrecision; image-rendering:optimizeQuality; fill-rule:evenodd; clip-rule:evenodd"
viewBox="0 0 2250 2074"
 xmlns:xlink="http://www.w3.org/1999/xlink">
 <defs>
  <style type="text/css">
   <![CDATA[
    .fil5 {fill:#00B503}
    .fil15 {fill:#0F60CF}
    .fil12 {fill:#243842}
    .fil3 {fill:#283E49}
    .fil11 {fill:#2D4552}
    .fil2 {fill:#324D5B}
    .fil4 {fill:#32D736}
    .fil8 {fill:#84B8F0}
    .fil13 {fill:#B8BBBD}
    .fil10 {fill:#C2C5C5}
    .fil6 {fill:#CCD0D2}
    .fil9 {fill:#CDD0D0}
    .fil1 {fill:#D8DBDB}
    .fil14 {fill:#DBDBDB}
    .fil0 {fill:#E4E7E7}
    .fil7 {fill:#F3F3F3}
   ]]>
  </style>
 </defs>
 <g id="Capa_x0020_1">
  <metadata id="CorelCorpID_0Corel-Layer"/>
  <g id="_2258230620976">
   <g>
    <path class="fil0" d="M105 791l2039 0c58,0 106,47 106,105l0 1072c0,58 -48,106 -106,106l-2039 0c-58,0 -105,-48 -105,-106l0 -1072c0,-58 47,-105 105,-105z"/>
    <path class="fil1" d="M0 1968c0,58 47,106 105,106l2039 0c58,0 106,-48 106,-106l0 -738 -2250 0 0 738z"/>
    <path class="fil2" d="M299 703l1652 0c58,0 105,47 105,105l0 141c0,58 -47,105 -105,105l-1652 0c-58,0 -106,-47 -106,-105l0 -141c0,-58 48,-105 106,-105z"/>
    <path class="fil3" d="M369 826l1511 0c30,0 53,23 53,53 0,30 -23,52 -53,52l-1511 0c-30,0 -53,-22 -53,-52 0,-28 23,-53 53,-53z"/>
    <path class="fil4" d="M272 1406c44,0 80,35 80,79 0,44 -36,79 -80,79 -44,0 -79,-35 -79,-79 0,-44 35,-79 79,-79z"/>
    <path class="fil5" d="M536 1406c44,0 79,35 79,79 0,44 -35,79 -79,79 -44,0 -79,-35 -79,-79 0,-44 35,-79 79,-79z"/>
    <path class="fil6" d="M1828 0l123 0c58,0 105,47 105,105l0 106c0,58 -47,105 -105,105l-123 0c-58,0 -106,-47 -106,-105l0 -106c0,-58 48,-105 106,-105z"/>
    <path class="fil7" d="M387 142l0 738 1476 0 0 -878 -1371 0c-58,0 -105,47 -105,105 0,0 0,35 0,35zm1581 -142l-105 0 0 105c0,-58 47,-105 105,-105z"/>
    <path class="fil8" d="M633 316l984 0c19,0 35,-15 35,-35 0,-19 -16,-35 -35,-35l-984 0c-20,0 -35,16 -35,35 0,20 15,35 35,35zm984 88l-984 0c-20,0 -35,16 -35,35 0,20 15,36 35,36l984 0c19,0 35,-16 35,-36 0,-19 -16,-35 -35,-35zm0 158l-984 0c-20,0 -35,16 -35,36 0,19 15,35 35,35l984 0c19,0 35,-16 35,-35 0,-20 -16,-36 -35,-36z"/>
   </g>
   <g>
    <path class="fil9" d="M1125 791l1019 0c58,0 106,47 106,105l0 1072c0,58 -48,106 -106,106l-1019 0 0 -1283z"/>
    <path class="fil10" d="M1125 2074l1019 0c58,0 106,-48 106,-106l0 -738 -1125 0 0 844z"/>
    <path class="fil11" d="M1125 703l826 0c58,0 105,47 105,105l0 141c0,58 -47,105 -105,105l-826 0 0 -351z"/>
    <path class="fil12" d="M1125 826l755 0c30,0 53,23 53,53 0,30 -23,52 -53,52l-755 0 0 -105z"/>
    <path class="fil13" d="M1828 0l123 0c58,0 105,47 105,105l0 106c0,58 -47,105 -105,105l-123 0c-58,0 -106,-47 -106,-105l0 -106c0,-58 48,-105 106,-105z"/>
    <path class="fil14" d="M1125 880l738 0 0 -878 -738 0 0 878zm843 -880l-105 0 0 105c0,-58 47,-105 105,-105z"/>
    <path class="fil15" d="M1125 316l492 0c19,0 35,-15 35,-35 0,-19 -16,-35 -35,-35l-492 0 0 70zm0 317l0 -71 492 0c19,0 35,16 35,36 0,19 -16,35 -35,35l-492 0zm0 -159l0 -70 492 0c19,0 35,16 35,35 0,20 -16,35 -35,35l-492 0z"/>
   </g>
  </g>
 </g>
</svg>
