<?xml version="1.0" encoding="UTF-8"?>
<!DOCTYPE svg PUBLIC "-//W3C//DTD SVG 1.1//EN" "http://www.w3.org/Graphics/SVG/1.1/DTD/svg11.dtd">
<!-- Creator: CorelDRAW X7 -->
<svg xmlns="http://www.w3.org/2000/svg" xml:space="preserve" width="5.6784mm" height="5.6784mm" version="1.1" style="shape-rendering:geometricPrecision; text-rendering:geometricPrecision; image-rendering:optimizeQuality; fill-rule:evenodd; clip-rule:evenodd"
viewBox="0 0 1897 1897"
 xmlns:xlink="http://www.w3.org/1999/xlink">
 <defs>
  <style type="text/css">
   <![CDATA[
    .fil1 {fill:#00924F}
    .fil8 {fill:#00AD45}
    .fil3 {fill:#00B503}
    .fil7 {fill:#136EF1}
    .fil0 {fill:#32D736}
    .fil6 {fill:#7BCD48}
    .fil2 {fill:#BED652}
    .fil5 {fill:#FFBE84}
    .fil4 {fill:#FFD3A4}
   ]]>
  </style>
 </defs>
 <g id="Capa_x0020_1">
  <metadata id="CorelCorpID_0Corel-Layer"/>
  <path class="fil0" d="M1786 333l0 334 -83 111 -29 0c-61,0 -111,50 -111,111l0 23 -111 88 -1007 0 -112 -78 0 -33c0,-61 -50,-111 -111,-111l-30 0 -81 -111 0 -334 83 -111 28 0c61,0 111,-50 111,-111l0 -29 112 -82 1007 0 111 93 0 18c0,61 50,111 111,111l19 0 93 111z"/>
  <path class="fil1" d="M1786 333l0 334 -83 111 -29 0c-61,0 -111,50 -111,111l0 23 -111 88 -504 0 0 -1000 504 0 111 93 0 18c0,61 50,111 111,111l19 0 93 111z"/>
  <path class="fil2" d="M948 0c-275,0 -500,224 -500,500 0,276 225,500 500,500 276,0 500,-224 500,-500 0,-276 -224,-500 -500,-500z"/>
  <path class="fil3" d="M1786 333l-112 0c-122,0 -222,-99 -222,-222l0 -111 278 0c31,0 56,25 56,56l0 277z"/>
  <path class="fil3" d="M1786 945c0,30 -25,55 -56,55l-278 0 0 -111c0,-122 100,-222 222,-222l112 0 0 278z"/>
  <path class="fil3" d="M445 111c0,123 -100,222 -223,222l-111 0 0 -277c0,-31 25,-56 56,-56l278 0 0 111z"/>
  <path class="fil3" d="M445 1000l-278 0c-31,0 -56,-25 -56,-55l0 -278 111 0c123,0 223,100 223,222l0 111z"/>
  <path class="fil4" d="M1897 1285c0,37 -11,72 -34,100l-266 356c-74,98 -189,156 -312,156l-1063 0 7 -622c137,-204 411,-234 583,-82 22,18 36,37 64,37l354 0c61,0 111,50 111,111 0,61 -50,111 -111,111l-396 0c-32,0 -56,25 -56,56 0,31 24,55 56,55l488 0c47,0 91,-19 122,-53l275 -295c29,-31 73,-41 113,-25 39,15 65,53 65,95z"/>
  <path class="fil5" d="M1230 1452l-282 0 0 -222 282 0c61,0 111,50 111,111 0,61 -50,111 -111,111z"/>
  <path class="fil5" d="M1897 1285c0,37 -11,72 -34,100l-266 356c-74,98 -189,156 -312,156l-337 0 0 -334 374 0c47,0 91,-19 122,-53l275 -295c29,-31 73,-41 113,-25 39,15 65,53 65,95z"/>
  <path class="fil6" d="M1448 500c0,276 -224,500 -500,500l0 -1000c276,0 500,224 500,500z"/>
  <path class="fil7" d="M333 1841c0,31 -24,56 -55,56l-222 0c-31,0 -56,-25 -56,-56l0 -667c0,-30 25,-55 56,-55l111 0c92,0 166,75 166,166l0 556z"/>
  <path class="fil8" d="M1115 611c0,70 -44,132 -110,157l-1 0 0 66c0,31 -25,55 -56,55 -31,0 -55,-24 -55,-55l0 -66c-37,-12 -71,-36 -101,-72 -20,-24 -17,-58 6,-78 24,-20 58,-17 78,7 23,27 49,42 72,42 7,0 13,-1 19,-4 22,-7 37,-28 37,-52 0,-31 -25,-55 -56,-55 -92,0 -166,-75 -166,-167 0,-67 40,-128 102,-153 2,-1 5,-1 9,-3l0 -66c0,-31 24,-56 55,-56 31,0 56,25 56,56l0 66c29,10 57,25 82,49 22,21 22,57 1,79 -21,22 -56,22 -79,1 -20,-20 -41,-30 -60,-29 -7,0 -14,2 -21,5 -21,9 -34,29 -34,51 0,31 24,56 55,56 93,0 167,74 167,166z"/>
  <path class="fil1" d="M1008 362c-20,-20 -41,-30 -60,-29l0 -222c31,0 56,25 56,56l0 66c29,10 57,25 82,49 22,21 22,57 1,79 -21,22 -56,22 -79,1z"/>
  <path class="fil1" d="M1115 611c0,70 -44,132 -110,157l-1 0 0 66c0,31 -25,55 -56,55l0 -222c7,0 13,-1 19,-4 22,-7 37,-28 37,-52 0,-31 -25,-55 -56,-55l0 -111c93,0 167,74 167,166z"/>
 </g>
</svg>
