<?xml version="1.0" encoding="UTF-8"?>
<!DOCTYPE svg PUBLIC "-//W3C//DTD SVG 1.1//EN" "http://www.w3.org/Graphics/SVG/1.1/DTD/svg11.dtd">
<!-- Creator: CorelDRAW X7 -->
<svg xmlns="http://www.w3.org/2000/svg" xml:space="preserve" width="5.6784mm" height="5.6784mm" version="1.1" style="shape-rendering:geometricPrecision; text-rendering:geometricPrecision; image-rendering:optimizeQuality; fill-rule:evenodd; clip-rule:evenodd"
viewBox="0 0 1913 1913"
 xmlns:xlink="http://www.w3.org/1999/xlink">
 <defs>
  <style type="text/css">
   <![CDATA[
    .fil16 {fill:#147540}
    .fil15 {fill:#1E834E}
    .fil4 {fill:#299956}
    .fil12 {fill:#36A1CB}
    .fil1 {fill:#4BAF78}
    .fil17 {fill:#605E5A}
    .fil9 {fill:#61C98D}
    .fil7 {fill:#6B6861}
    .fil6 {fill:#7C7A75}
    .fil11 {fill:#C9B585}
    .fil10 {fill:#CCC3A8}
    .fil14 {fill:#DD4D14}
    .fil13 {fill:#EA6428}
    .fil3 {fill:#EF711D}
    .fil5 {fill:#EF9A1D}
    .fil0 {fill:#F28838}
    .fil8 {fill:#FCA468}
    .fil2 {fill:#FFB92E}
   ]]>
  </style>
 </defs>
 <g id="Capa_x0020_1">
  <metadata id="CorelCorpID_0Corel-Layer"/>
  <path class="fil0" d="M862 1166l-41 0 -50 0 -42 0 -256 0 -41 0 -50 0 -42 0c-13,0 -23,11 -23,24l0 319c0,13 10,23 23,23l42 0 50 0 41 0 256 0 42 0 50 0 41 0c13,0 24,-10 24,-23l0 -319c0,-13 -11,-24 -24,-24z"/>
  <path class="fil1" d="M1042 426l42 0 50 0 41 0 256 0 42 0 50 0 41 0c13,0 24,10 24,23l0 319c0,13 -11,24 -24,24l-41 0 -50 0 -42 0 -256 0 -41 0 -50 0 -42 0c-13,0 -23,-11 -23,-24l0 -319c0,-13 10,-23 23,-23z"/>
  <path class="fil2" d="M1588 1069c0,-23 -19,-42 -42,-42l-618 0c-24,0 -42,19 -42,42l0 421c0,23 18,42 42,42l618 0c23,0 42,-19 42,-42l0 -421 0 0z"/>
  <path class="fil2" d="M317 329c0,-23 18,-42 41,-42l619 0c23,0 42,19 42,42l0 421c0,23 -19,42 -42,42l-619 0c-23,0 -41,-19 -41,-42l0 -421 0 0z"/>
  <path class="fil3" d="M400 1509l0 -319c0,-13 10,-24 23,-24l-41 0 -42 0c-13,0 -23,11 -23,24l0 319c0,13 10,23 23,23l42 0 41 0c-13,0 -23,-10 -23,-23z"/>
  <path class="fil4" d="M1102 768l0 -319c0,-13 10,-23 24,-23l-42 0 -42 0c-13,0 -23,10 -23,23l0 319c0,13 10,24 23,24l42 0 42 0c-14,0 -24,-11 -24,-24z"/>
  <path class="fil5" d="M969 1490l0 -421c0,-23 19,-42 42,-42l-83 0c-24,0 -42,19 -42,42l0 421c0,23 18,42 42,42l83 0c-23,0 -42,-19 -42,-42z"/>
  <path class="fil5" d="M400 750l0 -421c0,-23 18,-42 42,-42l-84 0c-23,0 -41,19 -41,42l0 421c0,23 18,42 41,42l84 0c-24,0 -42,-19 -42,-42z"/>
  <path class="fil6" d="M1302 1434l-131 0c-13,0 -25,11 -25,25l0 73 181 0 0 -73c0,-14 -11,-25 -25,-25z"/>
  <path class="fil6" d="M1146 1027l0 175c0,10 6,18 14,23 9,4 19,3 27,-3l50 -40 50 40c4,3 10,5 15,5 4,0 8,-1 11,-2 9,-5 14,-13 14,-23l0 -175 -181 0 0 0z"/>
  <path class="fil6" d="M577 287l0 175c0,9 6,18 14,22 4,2 7,3 11,3 6,0 11,-2 16,-6l50 -39 50 39c7,6 17,7 26,3 9,-4 14,-13 14,-22l0 -175c0,0 -181,0 -181,0z"/>
  <path class="fil6" d="M733 693l-131 0c-14,0 -25,12 -25,25l0 74 181 0 0 -74c0,-13 -11,-25 -25,-25z"/>
  <polygon class="fil6" points="303,904 113,1095 113,904 "/>
  <polygon class="fil6" points="1610,904 1800,1095 1800,904 "/>
  <polygon class="fil6" points="303,164 113,354 113,164 "/>
  <polygon class="fil6" points="1610,164 1800,354 1800,164 "/>
  <polygon class="fil6" points="303,1645 113,1835 113,1645 "/>
  <polygon class="fil7" points="200,904 113,904 113,1095 200,1008 "/>
  <polygon class="fil7" points="200,164 113,164 113,354 200,267 "/>
  <polygon class="fil7" points="200,1645 113,1645 113,1835 200,1748 "/>
  <polygon class="fil6" points="1610,1645 1800,1835 1800,1645 "/>
  <path class="fil8" d="M701 1440l-179 0c-17,0 -31,-14 -31,-31 0,-17 14,-31 31,-31l179 0c17,0 31,14 31,31 0,17 -14,31 -31,31z"/>
  <path class="fil9" d="M1383 700l-179 0c-17,0 -31,-14 -31,-31 0,-17 14,-31 31,-31l179 0c17,0 31,14 31,31 0,17 -14,31 -31,31z"/>
  <polygon class="fil10" points="333,792 69,792 69,909 333,909 1413,909 1530,909 1590,909 1854,909 1854,792 1590,792 "/>
  <polygon class="fil10" points="333,1532 69,1532 69,1649 333,1649 1590,1649 1854,1649 1854,1532 1590,1532 "/>
  <polygon class="fil10" points="1590,51 333,51 69,51 69,168 333,168 1413,168 1530,168 1590,168 1854,168 1854,51 "/>
  <polygon class="fil11" points="88,792 69,792 69,909 88,909 168,909 176,909 181,909 200,909 200,792 181,792 "/>
  <polygon class="fil11" points="88,1532 69,1532 69,1649 88,1649 181,1649 200,1649 200,1532 181,1532 "/>
  <polygon class="fil11" points="181,51 88,51 69,51 69,168 88,168 168,168 176,168 181,168 200,168 200,51 "/>
  <g>
   <path class="fil12" d="M1913 338l0 -286c0,-29 -24,-52 -52,-52l-13 0c-29,0 -52,23 -52,52l0 313 0 1182 0 314c0,28 23,52 52,52l13 0c28,0 52,-24 52,-52l0 -314 0 -1102 0 -107zm0 0l0 0 0 0z"/>
  </g>
  <path class="fil12" d="M0 52l0 313 0 1182 0 314c0,28 23,52 52,52l13 0c29,0 52,-24 52,-52l0 -314 0 -1182 0 -313c0,-29 -23,-52 -52,-52l-13 0c-29,0 -52,23 -52,52z"/>
  <path class="fil13" d="M862 1166l-41 0 -50 0 -42 0 -256 0 -41 0 -50 0 -42 0c-13,0 -23,11 -23,24l0 105 569 0 0 -105c0,-13 -11,-24 -24,-24z"/>
  <path class="fil14" d="M400 1190c0,-13 10,-24 23,-24l-41 0 -42 0c-13,0 -23,11 -23,24l0 105 83 0 0 -105z"/>
  <path class="fil15" d="M1042 426l42 0 50 0 41 0 256 0 42 0 50 0 41 0c13,0 24,10 24,23l0 105 -569 0 0 -105c0,-13 10,-23 23,-23z"/>
  <path class="fil16" d="M1102 449c0,-13 10,-23 24,-23l-42 0 -42 0c-13,0 -23,10 -23,23l0 105 83 0 0 -105z"/>
  <path class="fil17" d="M668 693l-66 0c-14,0 -25,12 -25,25l0 74 91 0 0 -99z"/>
  <path class="fil17" d="M668 287l-91 0 0 175c0,9 6,18 14,22 4,2 7,3 11,3 6,0 11,-2 16,-6l50 -39 0 -155z"/>
  <path class="fil17" d="M1237 1434l-66 0c-13,0 -25,11 -25,25l0 73 91 0 0 -98z"/>
  <path class="fil17" d="M1237 1027l-91 0 0 175c0,10 6,18 14,23 9,4 19,3 27,-3l50 -40 0 0 0 -155 0 0z"/>
 </g>
</svg>
