<?xml version="1.0" encoding="UTF-8"?>
<!DOCTYPE svg PUBLIC "-//W3C//DTD SVG 1.1//EN" "http://www.w3.org/Graphics/SVG/1.1/DTD/svg11.dtd">
<!-- Creator: CorelDRAW X7 -->
<svg xmlns="http://www.w3.org/2000/svg" xml:space="preserve" width="5.6645mm" height="5.6784mm" version="1.1" style="shape-rendering:geometricPrecision; text-rendering:geometricPrecision; image-rendering:optimizeQuality; fill-rule:evenodd; clip-rule:evenodd"
viewBox="0 0 1887 1892"
 xmlns:xlink="http://www.w3.org/1999/xlink">
 <defs>
  <style type="text/css">
   <![CDATA[
    .fil1 {fill:#124D7A}
    .fil0 {fill:#155A8E}
    .fil5 {fill:#17649D}
    .fil2 {fill:#1A6FAF}
    .fil3 {fill:#1E80CD}
    .fil6 {fill:#BAB8BE}
    .fil4 {fill:#D5D3DA}
    .fil7 {fill:#EBEAF2}
   ]]>
  </style>
 </defs>
 <g id="Capa_x0020_1">
  <metadata id="CorelCorpID_0Corel-Layer"/>
  <path class="fil0" d="M624 460l0 0 -6 0 -497 0 -1 0 0 0c-67,0 -120,54 -120,120l0 554c0,37 30,68 68,68l88 0 24 504c5,104 91,185 194,185 101,0 185,-80 190,-181l24 -508 83 0c37,0 68,-31 68,-68l0 -554c0,-64 -51,-117 -115,-120z"/>
  <path class="fil1" d="M624 460l0 0 -6 0 -249 0 0 1431c2,0 3,0 5,0 101,0 185,-80 190,-181l24 -508 83 0c37,0 68,-31 68,-68l0 -554c0,-64 -51,-117 -115,-120z"/>
  <circle class="fil2" cx="1521" cy="195" r="193"/>
  <path class="fil1" d="M1773 461l0 0 -6 0 -498 0 0 0 0 0c-67,1 -120,54 -120,121l0 553c0,37 30,68 68,68l88 0 24 505c5,103 90,184 194,184 101,0 184,-79 189,-181l25 -508 83 0c37,0 67,-31 67,-68l0 -553c0,-65 -50,-117 -114,-121z"/>
  <path class="fil3" d="M1199 459l0 0 -7 0 -497 0 -1 0 0 0c-66,0 -120,54 -120,120l0 554c0,37 31,67 68,67l88 0 25 505c5,104 90,185 193,185 102,0 185,-80 190,-181l25 -509 82 0c38,0 68,-30 68,-67l0 -554c0,-64 -51,-117 -114,-120z"/>
  <circle class="fil2" cx="946" cy="193" r="193"/>
  <circle class="fil2" cx="372" cy="194" r="193"/>
  <path class="fil2" d="M1199 459l0 0 -7 0 -248 0 0 1431c1,0 3,0 4,0 102,0 185,-80 190,-181l25 -509 82 0c38,0 68,-30 68,-67l0 -554c0,-64 -51,-117 -114,-120z"/>
  <path class="fil4" d="M1036 911c1,12 -2,24 -9,34l-65 92c-4,6 -11,9 -18,9 -8,0 -14,-3 -19,-9l-65 -92c-7,-10 -10,-22 -9,-34l31 -349 123 0 31 349z"/>
  <path class="fil0" d="M1773 461l0 0 -6 0 -249 0 0 1431c2,0 3,0 5,0 101,0 184,-79 189,-181l25 -508 83 0c37,0 67,-31 67,-68l0 -553c0,-65 -50,-117 -114,-121z"/>
  <path class="fil5" d="M372 1l0 386c107,0 193,-86 193,-193 0,-106 -86,-193 -193,-193z"/>
  <path class="fil5" d="M1140 193c0,-107 -87,-193 -194,-193 -1,0 -1,0 -2,0l0 386c1,0 1,0 2,0 107,0 194,-86 194,-193z"/>
  <path class="fil5" d="M1521 2l0 387c107,0 193,-87 193,-194 0,-106 -86,-193 -193,-193z"/>
  <path class="fil6" d="M1027 945c7,-10 10,-22 9,-34l-31 -349 -61 0 0 484c7,0 14,-3 18,-9l65 -92z"/>
  <path class="fil7" d="M842 496c-9,9 -9,23 0,32l86 86c9,8 23,8 32,0l85 -86c9,-9 9,-23 0,-32l-37 -37 -128 0 -38 37z"/>
  <path class="fil4" d="M1045 496l-37 -37 -64 0 0 161c5,0 11,-2 16,-6l85 -86c9,-9 9,-23 0,-32z"/>
 </g>
</svg>
