<?xml version="1.0" encoding="UTF-8"?>
<!DOCTYPE svg PUBLIC "-//W3C//DTD SVG 1.1//EN" "http://www.w3.org/Graphics/SVG/1.1/DTD/svg11.dtd">
<!-- Creator: CorelDRAW X7 -->
<svg xmlns="http://www.w3.org/2000/svg" xml:space="preserve" width="4.59375mm" height="6mm" version="1.1" style="shape-rendering:geometricPrecision; text-rendering:geometricPrecision; image-rendering:optimizeQuality; fill-rule:evenodd; clip-rule:evenodd"
viewBox="0 0 14 18"
 xmlns:xlink="http://www.w3.org/1999/xlink">
 <defs>
  <style type="text/css">
   <![CDATA[
    .fil7 {fill:#00B503}
    .fil2 {fill:#0A4EAF}
    .fil0 {fill:#0F60CF}
    .fil6 {fill:#32D736}
    .fil3 {fill:#B7E0F6}
    .fil1 {fill:#CAE8F9}
    .fil4 {fill:#FCBF29}
    .fil5 {fill:#FE9923}
   ]]>
  </style>
 </defs>
 <g id="Capa_x0020_1">
  <metadata id="CorelCorpID_0Corel-Layer"/>
  <g id="_815051664">
   <path class="fil0" d="M14 4l0 13c0,0 -1,1 -2,1l-10 0c-1,0 -2,-1 -2,-1l0 -13c0,-1 1,-2 2,-2l10 0c1,0 2,1 2,2z"/>
   <path class="fil1" d="M13 4l0 13c0,0 0,0 -1,0l-10 0c-1,0 -1,0 -1,0l0 -13c0,-1 0,-1 1,-1l10 0c1,0 1,0 1,1z"/>
   <path class="fil2" d="M14 4l0 13c0,0 -1,1 -2,1l-5 0 0 -16 5 0c1,0 2,1 2,2z"/>
   <path class="fil3" d="M13 4l0 13c0,0 0,0 -1,0l-5 0 0 -14 5 0c1,0 1,0 1,1z"/>
   <path class="fil4" d="M10 1l-2 0c0,-1 0,-1 -1,-1 -1,0 -1,0 -2,1l-1 0c-1,0 -1,0 -1,1l0 1c0,1 1,1 2,1l4 0c1,0 2,0 2,-1l0 -1c0,-1 -1,-1 -1,-1z"/>
   <path class="fil5" d="M11 2l0 1c0,1 -1,1 -2,1l-2 0 0 -4c1,0 1,0 1,1l2 0c0,0 1,0 1,1z"/>
   <path class="fil6" d="M10 12c0,1 0,2 -2,2l0 0 0 1c0,0 0,0 -1,0 -1,0 -1,0 -1,0l0 -1c-1,0 -2,-1 -2,-1 -1,0 -1,-1 0,-1 0,0 1,0 1,0 1,0 1,1 2,1 0,0 0,0 0,0 1,-1 1,-1 1,-1 0,0 0,-1 -1,-1 -2,0 -3,-1 -3,-2 0,-1 0,-1 2,-2 0,0 0,0 0,0l0 -1c0,0 0,0 1,0 1,0 1,0 1,0l0 1c1,0 1,0 2,1 0,0 0,0 0,1 -1,0 -1,0 -2,0 0,0 -1,-1 -1,-1 0,0 0,0 0,0 -1,1 -1,1 -1,1 0,1 0,1 1,1 2,0 3,1 3,2z"/>
   <path class="fil7" d="M10 12c0,1 0,2 -2,2l0 0 0 1c0,0 0,0 -1,0l0 -2c0,0 0,0 0,0 1,-1 1,-1 1,-1 0,0 0,-1 -1,-1l0 -1c2,0 3,1 3,2zm-2 -3c0,0 -1,-1 -1,-1l0 -2c1,0 1,0 1,0l0 1c1,0 1,0 2,1 0,0 0,0 0,1 -1,0 -1,0 -2,0z"/>
  </g>
 </g>
</svg>
